<mxfile host="65bd71144e">
    <diagram id="y7LyX2alFGtX07KHJ8K6" name="Page-1">
        <mxGraphModel dx="755" dy="518" grid="1" gridSize="10" guides="1" tooltips="1" connect="1" arrows="1" fold="1" page="1" pageScale="1" pageWidth="850" pageHeight="1100" math="0" shadow="0">
            <root>
                <mxCell id="0"/>
                <mxCell id="1" parent="0"/>
                <mxCell id="4" style="edgeStyle=none;html=1;entryX=0.5;entryY=0;entryDx=0;entryDy=0;" parent="1" source="2" target="71" edge="1">
                    <mxGeometry relative="1" as="geometry">
                        <mxPoint x="264.4900000000001" y="144" as="targetPoint"/>
                    </mxGeometry>
                </mxCell>
                <mxCell id="70" value="isTrue«${scope.config_milvus}==true &#10;&amp;&amp; ${scope.config_mongo}==true &#10;&amp;&amp; ${scope.config_postgres}==true &#10;&amp;&amp; ${scope.config_meta}==true»" style="edgeLabel;align=center;verticalAlign=middle;resizable=0;points=[];fontColor=#FFFFFF;fontSize=12;" parent="4" vertex="1" connectable="0">
                    <mxGeometry x="-0.2746" y="-2" relative="1" as="geometry">
                        <mxPoint x="2" y="7" as="offset"/>
                    </mxGeometry>
                </mxCell>
                <mxCell id="136" style="edgeStyle=none;html=1;" parent="1" source="2" target="135" edge="1">
                    <mxGeometry relative="1" as="geometry"/>
                </mxCell>
                <mxCell id="137" value="isTrue«${args.use_face}!==true»" style="edgeLabel;align=center;verticalAlign=middle;resizable=0;points=[];" parent="136" vertex="1" connectable="0">
                    <mxGeometry x="-0.1027" y="2" relative="1" as="geometry">
                        <mxPoint as="offset"/>
                    </mxGeometry>
                </mxCell>
                <mxCell id="2" value="start" style="ellipse;whiteSpace=wrap;html=1;fillColor=#b0e3e6;strokeColor=#0e8088;fontColor=#050505;" parent="1" vertex="1">
                    <mxGeometry x="244.92" y="20" width="40" height="40" as="geometry"/>
                </mxCell>
                <mxCell id="6" style="edgeStyle=none;html=1;exitX=0.5;exitY=1;exitDx=0;exitDy=0;" parent="1" source="16" target="133" edge="1">
                    <mxGeometry relative="1" as="geometry">
                        <mxPoint x="526.48" y="560" as="sourcePoint"/>
                        <mxPoint x="265.47" y="602.0600000000002" as="targetPoint"/>
                    </mxGeometry>
                </mxCell>
                <mxCell id="19" value="timelineEnds«&quot;timelineFace&quot;»" style="edgeLabel;align=center;verticalAlign=middle;resizable=0;points=[];fontSize=12;" parent="6" vertex="1" connectable="0">
                    <mxGeometry x="-0.2424" y="1" relative="1" as="geometry">
                        <mxPoint as="offset"/>
                    </mxGeometry>
                </mxCell>
                <mxCell id="5" value="ok" style="ellipse;whiteSpace=wrap;html=1;fillColor=#dae8fc;strokeColor=#6c8ebf;fontColor=#0D0D0D;" parent="1" vertex="1">
                    <mxGeometry x="245.48000000000002" y="722.06" width="40" height="40" as="geometry"/>
                </mxCell>
                <mxCell id="74" style="edgeStyle=none;html=1;" parent="1" source="8" target="95" edge="1">
                    <mxGeometry relative="1" as="geometry">
                        <mxPoint x="265" y="254" as="targetPoint"/>
                    </mxGeometry>
                </mxCell>
                <mxCell id="8" value="timelineNext«&quot;timelineFace&quot;»" style="rounded=1;whiteSpace=wrap;fillColor=#ffff88;strokeColor=#36393d;fontColor=#000000;" parent="1" vertex="1">
                    <mxGeometry x="148.85000000000002" y="204" width="232.29" height="30" as="geometry"/>
                </mxCell>
                <mxCell id="22" style="edgeStyle=none;html=1;entryX=1;entryY=0.5;entryDx=0;entryDy=0;fontSize=12;" parent="1" source="16" target="8" edge="1">
                    <mxGeometry relative="1" as="geometry">
                        <Array as="points">
                            <mxPoint x="600" y="540"/>
                            <mxPoint x="600" y="220"/>
                        </Array>
                    </mxGeometry>
                </mxCell>
                <mxCell id="23" value="timelineHasMore«&quot;timelineFace&quot;»" style="edgeLabel;align=center;verticalAlign=middle;resizable=0;points=[];fontSize=12;" parent="22" vertex="1" connectable="0">
                    <mxGeometry x="0.1347" y="2" relative="1" as="geometry">
                        <mxPoint x="2" as="offset"/>
                    </mxGeometry>
                </mxCell>
                <mxCell id="16" value="" style="ellipse;whiteSpace=wrap;html=1;fillColor=#dae8fc;strokeColor=#6c8ebf;" parent="1" vertex="1">
                    <mxGeometry x="245.47000000000003" y="520" width="40" height="40" as="geometry"/>
                </mxCell>
                <mxCell id="72" style="edgeStyle=none;html=1;fontColor=#FFFFFF;" parent="1" source="71" target="8" edge="1">
                    <mxGeometry relative="1" as="geometry"/>
                </mxCell>
                <mxCell id="71" value="mongo«&quot;write&quot;;&#10;&quot;dbnotes&quot;;&quot;collection_document&quot;;&quot;metadata.videoMeta&quot;»" style="rounded=1;whiteSpace=wrap;fillColor=#eeeeee;strokeColor=#36393d;fontColor=#000000;" parent="1" vertex="1">
                    <mxGeometry x="80" y="144" width="370" height="42" as="geometry"/>
                </mxCell>
                <mxCell id="149" value="" style="edgeStyle=none;html=1;" parent="1" source="95" target="148" edge="1">
                    <mxGeometry relative="1" as="geometry"/>
                </mxCell>
                <mxCell id="150" value="multiple«&quot;flow01_face_loop&quot;;&quot;state.timelines.timelineFace.list&quot;;&quot;index.j&quot;»" style="edgeLabel;align=center;verticalAlign=middle;resizable=0;points=[];fontSize=12;" parent="149" vertex="1" connectable="0">
                    <mxGeometry x="-0.2732" y="-1" relative="1" as="geometry">
                        <mxPoint x="1" y="11" as="offset"/>
                    </mxGeometry>
                </mxCell>
                <mxCell id="95" value="" style="ellipse;whiteSpace=wrap;html=1;fillColor=#b0e3e6;strokeColor=#0e8088;fontColor=#050505;" parent="1" vertex="1">
                    <mxGeometry x="245" y="264" width="40" height="40" as="geometry"/>
                </mxCell>
                <mxCell id="134" style="edgeStyle=none;html=1;" parent="1" source="133" target="5" edge="1">
                    <mxGeometry relative="1" as="geometry"/>
                </mxCell>
                <mxCell id="133" value="set«&quot;args.use_face&quot;;false»" style="rounded=1;whiteSpace=wrap;fillColor=#cce5ff;strokeColor=#36393d;fontColor=#000000;" parent="1" vertex="1">
                    <mxGeometry x="148.85000000000014" y="626" width="232.13" height="40" as="geometry"/>
                </mxCell>
                <mxCell id="135" value="ok" style="ellipse;whiteSpace=wrap;html=1;fillColor=#b0e3e6;strokeColor=#0e8088;fontColor=#050505;" parent="1" vertex="1">
                    <mxGeometry x="545.21" y="20" width="40" height="40" as="geometry"/>
                </mxCell>
                <mxCell id="152" style="edgeStyle=none;html=1;entryX=0.5;entryY=0;entryDx=0;entryDy=0;fontSize=12;" parent="1" source="148" target="16" edge="1">
                    <mxGeometry relative="1" as="geometry"/>
                </mxCell>
                <mxCell id="153" value="multipleDone«&quot;state.timelines.timelineFace.list&quot;»" style="edgeLabel;align=center;verticalAlign=middle;resizable=0;points=[];fontSize=12;" parent="152" vertex="1" connectable="0">
                    <mxGeometry x="-0.3332" y="-2" relative="1" as="geometry">
                        <mxPoint as="offset"/>
                    </mxGeometry>
                </mxCell>
                <mxCell id="148" value="" style="ellipse;whiteSpace=wrap;html=1;fillColor=#b0e3e6;strokeColor=#0e8088;fontColor=#050505;" parent="1" vertex="1">
                    <mxGeometry x="245" y="400" width="40" height="40" as="geometry"/>
                </mxCell>
            </root>
        </mxGraphModel>
    </diagram>
</mxfile>